<svg xmlns="http://www.w3.org/2000/svg" viewBox="0 0 1195.35 1195.35"><defs><style>.cls-1{fill:none;}.cls-2{fill:#fff;}.cls-3{fill:#0c2342;}</style></defs><g id="Layer_2" data-name="Layer 2"><g id="Layer_1-2" data-name="Layer 1"><path class="cls-1" d="M490.37,600.92h-6a3.92,3.92,0,0,0-3.91,3.94V680a3.93,3.93,0,0,0,3.91,4q28,0,40.56-9.86t12.52-32.36Q537.48,600.92,490.37,600.92Z"/><path class="cls-2" d="M458.85,352.05c-13.46,8.57-153,93.41-153,93.41a85.78,85.78,0,0,0,41.69,19.15c1.75.29,3.51.58,5.29.85H329.29a3.93,3.93,0,0,0-3.91,3.94V486a136.57,136.57,0,0,1-24.54-14.6c-5.18-3.82-10.17,4.85-5,8.64a134.64,134.64,0,0,0,29.58,16.72v36.11a135.93,135.93,0,0,1-24.54-14.58c-5.18-3.83-10.17,4.85-5,8.63a135.08,135.08,0,0,0,29.58,16.73v36.12a136.57,136.57,0,0,1-24.54-14.6c-5.18-3.83-10.17,4.85-5,8.64a134.64,134.64,0,0,0,29.58,16.72v36.12A137.13,137.13,0,0,1,300.84,612c-5.18-3.83-10.17,4.84-5,8.63a135.08,135.08,0,0,0,29.58,16.73V673.5a136.54,136.54,0,0,1-24.54-14.59c-5.18-3.83-10.17,4.85-5,8.64a134.64,134.64,0,0,0,29.58,16.72v36.12a136.57,136.57,0,0,1-24.54-14.6c-5.18-3.82-10.17,4.85-5,8.64a135.08,135.08,0,0,0,29.58,16.73v36.11a136.54,136.54,0,0,1-24.54-14.59c-5.18-3.83-10.17,4.85-5,8.63A134.67,134.67,0,0,0,325.38,778v28c-28.58-12.76-37.82-20.57-37.82-51.47,0-31.82-4.9-313.22,1.22-320.56s160.28-100.33,164-101.55S472.31,343.49,458.85,352.05Z"/><path class="cls-3" d="M412.36,819.43h-8.69C409.07,819.51,412.36,819.43,412.36,819.43Z"/><path class="cls-2" d="M360.82,502.87v36.92c-11.66,1.4-24-1.78-35.44-6.95V496.73C336.86,501.31,349,503.92,360.82,502.87Z"/><path class="cls-2" d="M325.38,579.74V543.62c11.48,4.58,23.66,7.19,35.44,6.15v36.9C349.16,588.08,336.82,584.9,325.38,579.74Z"/><path class="cls-2" d="M325.38,626.62V590.5c11.48,4.58,23.66,7.19,35.44,6.15v36.9C349.16,635,336.82,631.78,325.38,626.62Z"/><path class="cls-2" d="M325.38,673.5V637.39c11.48,4.58,23.66,7.19,35.44,6.14v36.91C349.17,681.84,336.82,678.67,325.38,673.5Z"/><path class="cls-2" d="M325.38,720.39V684.27c11.48,4.58,23.66,7.19,35.44,6.14v36.91C349.16,728.73,336.82,725.55,325.38,720.39Z"/><path class="cls-2" d="M325.38,767.27V731.16c11.48,4.58,23.66,7.19,35.44,6.15v36.9C349.17,775.61,336.82,772.44,325.38,767.27Z"/><path class="cls-2" d="M412.36,472V819.42h-8.69c-16.48-.28-52.7-2.09-75.74-12.22l-2.55-1.14V778c12.4,5,25.62,7.6,38.27,5.82,3,1.25,7.17-.21,7.17-4.4V497.12a5.06,5.06,0,0,0-6.33-4.82C351.78,495,338,491.68,325.38,486V469.4a3.93,3.93,0,0,1,3.91-3.94H352.8c2.59.35,5.18.68,7.75,1C387.7,469.87,412.36,472,412.36,472Z"/><path class="cls-2" d="M577.18,662.46a11.37,11.37,0,0,1-11.36-11.36V487.41a146.68,146.68,0,0,0-33-13.86q-24.75-7.08-54.48-7.09H352.8c24.36,4.33,51.5,6.5,51.5,6.5V820.42h70.84q54.64,0,93.19-23.08t58.52-64.72A200.67,200.67,0,0,0,646,662.46Zm-94.42,21.13A85.81,85.81,0,0,1,466.59,685a3.7,3.7,0,0,1-3.37-4V605.86a3.69,3.69,0,0,1,3.37-3.94h5.17a67.34,67.34,0,0,1,9.48.63Q512.5,607,512.5,642.74q0,22.5-10.83,32.36-6.81,6.2-18.9,8.49Z"/><path class="cls-2" d="M567.67,644.53l14.48-146.06a136.06,136.06,0,0,0-16.33-11.06V651.1a11.37,11.37,0,0,0,11.36,11.36H646c.07-.81.15-1.62.21-2.43.11-1.46.2-2.94.28-4.41H576.44C571.18,655.62,567.09,650.44,567.67,644.53Z"/><path class="cls-2" d="M879.89,420.08l-84.22.93c-5.34.06-9.52-5.23-8.86-11.24l14.73-134.66c.66-6-3.52-11.29-8.87-11.23l-171.42,1.89c-4.49.05-8.22,3.91-8.67,9L593.53,491.09a141.1,141.1,0,0,1,21,19.84Q659,562.52,659.8,636c0,3.86,0,7.68-.19,11.49l202.62-2.23c4.49,0,8.23-3.92,8.67-9l17.88-205.25C889.3,425.15,885.15,420,879.89,420.08Z"/><path class="cls-2" d="M602.91,518.53a141.28,141.28,0,0,0-20.76-20.06L567.67,644.53c-.58,5.91,3.51,11.09,8.77,11.09H646.5q.32-5.7.32-11.49Q646.82,570.62,602.91,518.53Z"/><path class="cls-2" d="M377.71,407.92,483,370.59a129.1,129.1,0,0,0-18.88-10.81L378.9,407.26Z"/><path class="cls-2" d="M508.62,393.59A137.81,137.81,0,0,0,493,378.19L368.87,422.65C407.51,420.48,488.91,398.94,508.62,393.59Z"/><path class="cls-2" d="M530.38,427.29a146.14,146.14,0,0,0-12.78-22.17C490.39,412.58,380.14,433,380.14,433,390.3,431.64,509.91,427.92,530.38,427.29Z"/><path class="cls-2" d="M541.66,462.15A151.56,151.56,0,0,0,535,438.38l-145.95,7.2C400.29,445.35,523.89,460,541.66,462.15Z"/><path class="cls-2" d="M516,1028.79c32-3.45,60.29,12.45,60.29,12.45S551.5,1077,521,1068.93c-36.05-9.55-62.27-9.81-62.27-9.81C458.32,1056.52,484,1032.23,516,1028.79Z"/><path class="cls-2" d="M440.06,999.08c32-3.45,60.28,12.45,60.28,12.45s-24.73,35.77-55.25,27.69c-36.06-9.55-62.27-9.81-62.27-9.81C382.43,1026.81,408.06,1002.52,440.06,999.08Z"/><path class="cls-2" d="M369.06,976.29c26.58-2.87,50.15,10.92,50.15,10.92s-20.42,30.72-45.82,23.66c-30-8.34-51.79-8.65-51.79-8.65C321.26,1000,342.48,979.15,369.06,976.29Z"/><path class="cls-2" d="M309.42,946.83c24.82-2.67,46.82,10.2,46.82,10.2s-19.06,28.68-42.77,22.09c-28-7.79-48.36-8.08-48.36-8.08C264.8,969,284.61,949.5,309.42,946.83Z"/><path class="cls-2" d="M273,919.09c21.17-.18,38.46,12.5,38.46,12.5s-18.86,22.57-38.19,15c-22.85-8.91-40-10.85-40-10.85C233.2,934,251.78,919.26,273,919.09Z"/><path class="cls-2" d="M247,887.25c17.71,2.72,30.14,15.66,30.14,15.66s-19.31,16.29-34.26,7.37c-17.67-10.53-31.65-14.47-31.65-14.47C211.41,894.31,229.25,884.53,247,887.25Z"/><path class="cls-2" d="M224.81,856c15,2.1,25.63,13.43,25.63,13.43s-16.28,14.94-29,7.25c-15-9.09-26.91-12.35-26.91-12.35C194.72,863,209.79,853.87,224.81,856Z"/><path class="cls-2" d="M527.1,1013.53c19.95,23.45,52.06,30.81,52.06,30.81s9.9-41.49-17.82-55.83c-32.74-16.94-51.43-34-51.43-34C507.64,956.11,507.16,990.08,527.1,1013.53Z"/><path class="cls-2" d="M446.67,983.72c22.89,21,55.73,24.68,55.73,24.68s4.36-42.29-25-53.39c-34.73-13.11-55.53-27.9-55.53-27.9C419.79,928.94,423.79,962.71,446.67,983.72Z"/><path class="cls-2" d="M380.06,959.72c12.09,19.57,35.68,28.12,35.68,28.12s13.24-30.42-6-43.84c-22.77-15.84-34.77-30.45-34.77-30.45C373,914.53,368,940.15,380.06,959.72Z"/><path class="cls-2" d="M325.45,923.8c5.14,22.66,25.29,37.91,25.29,37.91s23.3-25.86,9-44.6c-16.86-22.15-23.61-39.94-23.61-39.94C333.92,877.56,320.31,901.14,325.45,923.8Z"/><path class="cls-2" d="M291.27,898.43c1.11,19.6,15.84,34.8,15.84,34.8S330.25,914.4,320.94,897c-11-20.58-14.14-36.29-14.14-36.29C304.87,860.74,290.15,878.84,291.27,898.43Z"/><path class="cls-2" d="M262,874.74c-.38,16.63,11,30.34,11,30.34s20.84-14.57,14.14-29.84c-7.9-18-9.5-31.5-9.5-31.5C276.06,843.67,262.39,858.11,262,874.74Z"/><path class="cls-2" d="M241.21,845.05c-1.84,13.37,6.64,25.4,6.64,25.4s19.11-10,14.8-22.86c-5.1-15.22-5.23-26.21-5.23-26.21C256,821.19,243.06,831.67,241.21,845.05Z"/><path class="cls-2" d="M211.48,833.22c9.34,12.17,24.11,17.28,24.11,17.28s-.89-22.63-13.71-30.85c-15.15-9.71-18.79-15.38-18.79-15.38C202.06,804.91,202.14,821.06,211.48,833.22Z"/><path class="cls-2" d="M228.29,835.9a283.65,283.65,0,0,0,16.1,25.87,279.63,279.63,0,0,0,64.45,65.7A286.45,286.45,0,0,0,335,944.39c26.94,15.39,57.35,26.76,87.43,36.35,20.29,6.45,40.93,12.11,61.54,18.23,2.57.77,5.14,1.57,7.71,2.36a461.58,461.58,0,0,1,53.13,19.55c9.83,4.42,19.6,9.13,28.94,14.4a258.19,258.19,0,0,1,27.1,17.29l6.4,4.8A169.85,169.85,0,0,1,645,1097.26c-.52.69-3.67,2-4.27,1.35-12.22-12.51-24-25.13-38.65-35.08l-6.6-4.12c-8.85-5.34-17.9-10.4-27.29-14.9s-19-9-28.77-12.75c-9.71-4-19.6-7.64-29.55-11.2l-7.47-2.66-7.51-2.6c-5-1.72-10-3.45-15.09-5.13-20.16-6.84-40.56-13.42-60.87-20.42-15.24-5.25-30.44-11-45.14-17.38l-3.7-1.62a345,345,0,0,1-32.28-16.36L331,950.26a292.08,292.08,0,0,1-26.21-18.16,278.41,278.41,0,0,1-62.69-69,287.82,287.82,0,0,1-14.94-26.68Z"/><path class="cls-2" d="M679.4,1029c-32-3.44-60.28,12.46-60.28,12.46s24.73,35.77,55.25,27.68c36.06-9.55,62.27-9.8,62.27-9.8C737,1056.71,711.4,1032.43,679.4,1029Z"/><path class="cls-2" d="M755.29,999.27c-32-3.44-60.28,12.46-60.28,12.46s24.74,35.77,55.25,27.68c36.06-9.55,62.27-9.81,62.27-9.81C812.93,1027,787.29,1002.71,755.29,999.27Z"/><path class="cls-2" d="M826.29,976.48c-26.58-2.86-50.15,10.92-50.15,10.92s20.43,30.72,45.82,23.66c30-8.34,51.79-8.65,51.79-8.65C874.09,1000.17,852.88,979.34,826.29,976.48Z"/><path class="cls-2" d="M885.93,947c-24.82-2.67-46.82,10.2-46.82,10.2s19.07,28.68,42.78,22.09c28-7.79,48.35-8.07,48.35-8.07C930.55,969.14,910.75,949.7,885.93,947Z"/><path class="cls-2" d="M922.4,919.28c-21.17-.17-38.45,12.51-38.45,12.51s18.85,22.57,38.19,15c22.84-8.9,40-10.84,40-10.84C962.15,934.19,943.57,919.46,922.4,919.28Z"/><path class="cls-2" d="M948.4,887.45c-17.7,2.72-30.14,15.65-30.14,15.65s19.31,16.29,34.26,7.38C970.19,900,984.17,896,984.17,896,983.94,894.5,966.1,884.72,948.4,887.45Z"/><path class="cls-2" d="M970.55,856.16c-15,2.11-25.63,13.44-25.63,13.44s16.27,14.94,29,7.25c15-9.09,26.9-12.35,26.9-12.35C1000.63,863.15,985.57,854.06,970.55,856.16Z"/><path class="cls-2" d="M668.25,1013.73c-19.94,23.44-52.06,30.8-52.06,30.8s-9.89-41.48,17.82-55.82c32.74-17,51.44-34,51.44-34C687.71,956.31,688.2,990.28,668.25,1013.73Z"/><path class="cls-2" d="M748.68,983.92c-22.89,21-55.73,24.68-55.73,24.68s-4.35-42.3,25-53.39c34.74-13.11,55.53-27.9,55.53-27.9C775.56,929.13,771.57,962.9,748.68,983.92Z"/><path class="cls-2" d="M815.29,959.92C803.21,979.49,779.61,988,779.61,988s-13.23-30.42,6-43.83c22.78-15.85,34.77-30.45,34.77-30.45C822.37,914.73,827.37,940.35,815.29,959.92Z"/><path class="cls-2" d="M869.9,924c-5.14,22.66-25.29,37.92-25.29,37.92s-23.29-25.86-9-44.61c16.85-22.15,23.6-39.93,23.6-39.93C861.43,877.76,875.05,901.33,869.9,924Z"/><path class="cls-2" d="M904.09,898.63c-1.12,19.59-15.84,34.8-15.84,34.8s-23.15-18.84-13.84-36.26c11-20.58,14.15-36.29,14.15-36.29C890.49,860.94,905.2,879,904.09,898.63Z"/><path class="cls-2" d="M933.34,874.94c.39,16.63-11,30.34-11,30.34s-20.84-14.58-14.15-29.85c7.9-18,9.5-31.5,9.5-31.5C919.3,843.87,933,858.31,933.34,874.94Z"/><path class="cls-2" d="M954.14,845.24c1.85,13.38-6.64,25.4-6.64,25.4s-19.11-10-14.79-22.86c5.09-15.21,5.22-26.2,5.22-26.2C939.32,821.39,952.3,831.87,954.14,845.24Z"/><path class="cls-2" d="M983.87,833.42c-9.34,12.16-24.11,17.28-24.11,17.28s.9-22.64,13.72-30.86c15.14-9.71,18.79-15.38,18.79-15.38C993.29,805.1,993.21,821.25,983.87,833.42Z"/><path class="cls-2" d="M967.07,836.1A285.71,285.71,0,0,1,951,862a269.4,269.4,0,0,1-18.9,24.09,265.47,265.47,0,0,1-45.55,41.62,285.24,285.24,0,0,1-26.18,16.92C833.41,960,803,971.34,772.91,980.93,752.63,987.38,732,993,711.37,999.17c-2.57.76-5.14,1.56-7.71,2.36a461.43,461.43,0,0,0-53.12,19.55c-9.83,4.42-19.61,9.13-28.94,14.39a261,261,0,0,0-27.11,17.29l-6.39,4.8a169.69,169.69,0,0,0-37.77,39.9c.51.68,3.66,2,4.27,1.35,12.22-12.52,24-25.13,38.64-35.09l6.6-4.11c8.86-5.35,17.9-10.41,27.3-14.9s19-9,28.77-12.76c9.7-4,19.6-7.64,29.54-11.2l7.47-2.66,7.51-2.59c5-1.72,10-3.45,15.09-5.13,20.17-6.84,40.57-13.43,60.88-20.43,15.23-5.25,30.44-10.94,45.14-17.38l3.69-1.62a341.62,341.62,0,0,0,32.29-16.36l6.87-4.12A290.65,290.65,0,0,0,890.6,932.3a278.76,278.76,0,0,0,62.69-69,282.17,282.17,0,0,0,14.94-26.69Z"/><path class="cls-2" d="M233.43,282.31l-12.9,14-8.26-7.6,35.13-38.14,8.25,7.61-12.9,14,35.52,32.71L268.94,315Z"/><path class="cls-2" d="M299,206.35l38.05,45.74L326.5,260.9l-15.6-18.76-20.78,17.29,15.6,18.75L295.13,287l-38.05-45.74,10.59-8.81,15,18,20.78-17.29-15-18Z"/><path class="cls-2" d="M349.4,236.56q-9.72-2.37-16.49-13.57l-17.24-28.51,11.78-7.13,17,28.08q8.28,13.68,19.62,6.81,5.52-3.35,6.44-8.41t-3.36-12.12l-17-28.08,11.64-7L379,195.11q6.78,11.2,4.35,20.91T370,232.33Q359.12,238.92,349.4,236.56Zm6.34-66.32,2-1.18a4.85,4.85,0,0,0,2.39-3.19,5.38,5.38,0,0,0-.8-4,8,8,0,0,0-4.09-3.49l5.19-6.52a13.63,13.63,0,0,1,6.73,5.87q3.3,5.45,1.95,10.54T362,176.8l-1.67,1Z"/><path class="cls-2" d="M458.86,126.8l-4.09,64.71-12.8,4.6-44.29-47.3,14-5,31.42,33.86,2.9-46.2Z"/><path class="cls-2" d="M468.2,125.28l13.35-3.37L496.1,179.6,482.74,183Z"/><path class="cls-2" d="M552.31,158.45,554,169.38l-45.53,7-9.07-58.8,44.44-6.86,1.68,10.92-30.91,4.77,2,12.77,27.3-4.21,1.63,10.58-27.3,4.21,2.1,13.61Zm-24.09-50.2L519.93,103l-6.33,7.51L504,112l9.22-13.81,11.59-1.79,13,10.39Zm1.25,81.38a5.44,5.44,0,0,1-2.27-3.82,5.82,5.82,0,0,1,1-4.45,6,6,0,0,1,8.28-1.28,5.74,5.74,0,0,1,2.32,3.94,5.44,5.44,0,0,1-1,4.33,6.43,6.43,0,0,1-8.32,1.28Z"/><path class="cls-2" d="M616.62,108.08l1,59.49-11.3.19L576,132.12l.59,36.12-13.6.22-1-59.5,11.39-.18,30.16,35.64L603,108.3Z"/><path class="cls-2" d="M664,112.08l26.55,5.07A38,38,0,0,1,706.65,124a27.74,27.74,0,0,1,9.4,12.4,31.7,31.7,0,0,1-5.87,30.73,27.66,27.66,0,0,1-13.3,8,37.91,37.91,0,0,1-17.52.42l-26.55-5.07Zm16.84,52.28q8.78,1.68,14.92-2.21t7.75-12.24q1.59-8.34-2.69-14.23t-13.06-7.55l-12.35-2.36L668.46,162Z"/><path class="cls-2" d="M759.91,185.06l-26.07-9.13-9.19,10.29-13.31-4.66L756,134.17l12.84,4.49,5.44,65-13.64-4.77Zm-.63-11.3-1.38-24.62-16.43,18.39Z"/><path class="cls-2" d="M828.48,164.67l12,6.83L816.5,213.43l25.91,14.79L836.85,238,799,216.35Z"/><path class="cls-2" d="M875.82,193.2,887.14,201,853.26,250l-11.32-7.85Z"/><path class="cls-2" d="M906.19,278.34l-7.11,8.46-35.26-29.64,38.28-45.55,34.42,28.93L929.41,249l-23.95-20.12-8.31,9.89,21.15,17.77-6.89,8.2L890.26,247l-8.86,10.54Zm21.86-51.24-2.47-8.41-8.72-1-7.48-6.29,14.89-.14,8.85,7.44,2.42,14.69Zm4.71-13.53a24.69,24.69,0,0,1-1.65-4.11c-.27-.74-.54-1.45-.82-2.13a3.78,3.78,0,0,0-1-1.51,3.41,3.41,0,0,0-2.68-.92,4.81,4.81,0,0,0-2.7,1.5L918.7,202q3.34-3.85,7.11-4.3a9.38,9.38,0,0,1,7.28,2.51,9.59,9.59,0,0,1,2.45,2.95,40.94,40.94,0,0,1,1.72,4.11,25.3,25.3,0,0,0,.9,2.42,4.1,4.1,0,0,0,1.06,1.45,3.33,3.33,0,0,0,2.7.88,4.8,4.8,0,0,0,2.63-1.4l5.07,4.26a11.41,11.41,0,0,1-7,4.23,9.06,9.06,0,0,1-7.21-2.39A11.11,11.11,0,0,1,932.76,213.57Z"/><path class="cls-2" d="M914.61,293.84q.45-10,10.16-18.78l24.69-22.38,9.25,10.21-24.32,22q-11.83,10.72-2.93,20.55,4.34,4.8,9.48,4.71t11.26-5.61l24.31-22,9.14,10.08L961,315q-9.71,8.79-19.7,8.27t-18.55-10Q914.15,303.84,914.61,293.84Z"/><path class="cls-2" d="M597.68,1195.35A597.84,597.84,0,0,1,365,47,597.83,597.83,0,0,1,830.32,1148.38,593.89,593.89,0,0,1,597.68,1195.35Zm0-1172.43c-316.93,0-574.76,257.83-574.76,574.76s257.83,574.75,574.76,574.75,574.75-257.83,574.75-574.75S914.6,22.92,597.68,22.92Z"/></g></g></svg>