<svg xmlns="http://www.w3.org/2000/svg" viewBox="0 0 1502.49 485.54"><defs><style>.cls-1{fill:#0a7556;}.cls-2{fill:#0b7455;}.cls-3{fill:#feae21;}.cls-4{fill:#fb3858;}.cls-5{fill:#4c4c4c;}</style></defs><g id="Layer_2" data-name="Layer 2"><g id="Layer_1-2" data-name="Layer 1"><path class="cls-1" d="M365.59,332.92q-22.06-6.41-35.45-16.66l15.66-34.75a106.27,106.27,0,0,0,30.48,15.1,114.36,114.36,0,0,0,35.32,5.69q19.65,0,29-5.84t9.4-15.52a14.83,14.83,0,0,0-5.56-11.82,42.16,42.16,0,0,0-14.24-7.55q-8.69-2.83-23.49-6.26a324.66,324.66,0,0,1-37.32-10.83,60.6,60.6,0,0,1-24.92-17.37q-10.41-12-10.4-31.9a55.57,55.57,0,0,1,9.4-31.48q9.41-14.08,28.34-22.36t46.29-8.26a153.64,153.64,0,0,1,37.31,4.56,110.43,110.43,0,0,1,31.9,13.1l-14.24,35q-27.63-15.66-55.26-15.67-19.37,0-28.62,6.27T380,192.93q0,10.24,10.68,15.24T423.27,218a325.27,325.27,0,0,1,37.32,10.83,61.85,61.85,0,0,1,24.92,17.09q10.39,11.68,10.4,31.61a54.45,54.45,0,0,1-9.55,31.19q-9.54,14.1-28.62,22.36t-46.43,8.26A162.91,162.91,0,0,1,365.59,332.92Z"/><path class="cls-1" d="M590.18,275.81l-21.36,21.08v39H524.39V124.57h44.43V244.2l64.94-61.53h53l-63.8,65,69.49,88.29H638.6Z"/><path class="cls-1" d="M713.51,154.19a24.12,24.12,0,0,1,0-35.32q7.69-7.11,19.94-7.12t19.94,6.84a21.94,21.94,0,0,1,7.69,17.09,24.21,24.21,0,0,1-7.69,18.37q-7.7,7.26-19.94,7.26T713.51,154.19Zm-2.28,28.48h44.44V335.91H711.23Z"/><path class="cls-1" d="M936.11,197.49q17.5,17.08,17.51,50.69v87.73H909.19V255q0-18.22-8-27.2t-23.07-9q-16.8,0-26.77,10.39t-10,30.91v75.76H797V182.67h42.44v18a58.87,58.87,0,0,1,21.93-15,76.44,76.44,0,0,1,28.77-5.26Q918.58,180.4,936.11,197.49Z"/><path class="cls-1" d="M1179.78,136.53V335.91h-37.89l-99.4-121V335.91H996.91V136.53h38.17l99.12,121.06V136.53Z"/><path class="cls-1" d="M1373.18,271.83H1257.25a36.11,36.11,0,0,0,14.81,22.5q11.67,8.26,29,8.26a58.88,58.88,0,0,0,21.22-3.56,51.52,51.52,0,0,0,17.24-11.25l23.64,25.63q-21.66,24.78-63.24,24.78-25.92,0-45.86-10.11T1223.35,300q-10.81-17.94-10.82-40.73,0-22.49,10.68-40.58a74.8,74.8,0,0,1,29.34-28.2q18.65-10.11,41.73-10.11,22.48,0,40.73,9.68a70.69,70.69,0,0,1,28.62,27.77q10.39,18.09,10.4,42Q1374,260.72,1373.18,271.83Zm-104-49.28q-10.24,8.55-12.53,23.36h75.48q-2.28-14.53-12.53-23.22T1294.56,214Q1279.46,214,1269.21,222.55Z"/><path class="cls-1" d="M1502.49,328.51a45.55,45.55,0,0,1-16.1,7.26,81.52,81.52,0,0,1-20.08,2.42q-27.35,0-42.29-14t-15-41v-63h-23.64V186.09h23.64V148.78h44.44v37.31h38.17v34.18H1453.5v62.38q0,9.69,5,15t14.1,5.27q10.53,0,18-5.69Z"/><path class="cls-2" d="M351.57,411.54h-21.8v-5.67h50.16v5.67h-21.8V467.9h-6.56Z"/><path class="cls-2" d="M426.76,426q5.19,5.09,5.19,14.84v27h-6.3V441.49q0-7.26-3.63-11.07t-10.37-3.82q-7.53,0-11.92,4.48t-4.38,12.36V467.9h-6.29V402.14h6.29v27.3a17,17,0,0,1,7.09-6.29,23.21,23.21,0,0,1,10.36-2.22Q421.57,420.93,426.76,426Z"/><path class="cls-2" d="M491.06,421.29V467.9h-6v-8.51a17.27,17.27,0,0,1-6.82,6.61,20.61,20.61,0,0,1-9.93,2.35q-9.12,0-14.4-5.1t-5.27-14.93v-27h6.29v26.4q0,7.37,3.63,11.17t10.37,3.81q7.37,0,11.61-4.47t4.26-12.45V421.29Zm-4.34-.09h1.33a5.58,5.58,0,0,0,4.38-1.64,6.2,6.2,0,0,0,1.47-4.3,9.51,9.51,0,0,0-1.78-5.67l4.17-1.6a12.43,12.43,0,0,1,2.3,7.45,10.72,10.72,0,0,1-2.75,7.75q-2.74,2.88-7.79,2.88h-1.33Z"/><path class="cls-2" d="M571.61,421.29,550.88,467.9h-6.47l-20.65-46.61h6.56L547.78,461l17.63-39.7Z"/><path class="cls-2" d="M580.39,409.76a4.31,4.31,0,0,1-1.33-3.18,4.25,4.25,0,0,1,1.33-3.11,4.47,4.47,0,0,1,3.28-1.33,4.53,4.53,0,0,1,3.28,1.29,4.14,4.14,0,0,1,1.32,3.06,4.62,4.62,0,0,1-7.88,3.27Zm.09,11.53h6.29V467.9h-6.29Z"/><path class="cls-2" d="M644.9,446.54h-39a16.69,16.69,0,0,0,5.58,11.75,18.56,18.56,0,0,0,12.77,4.47,20,20,0,0,0,8-1.55,17.34,17.34,0,0,0,6.29-4.56l3.55,4.07a19.75,19.75,0,0,1-7.76,5.67,27.84,27.84,0,0,1-22.95-1.1,22.06,22.06,0,0,1-8.64-8.47,24.09,24.09,0,0,1-3.1-12.23,25,25,0,0,1,3-12.23,21.41,21.41,0,0,1,8.15-8.41,22.77,22.77,0,0,1,11.66-3,22.47,22.47,0,0,1,11.6,3,21.25,21.25,0,0,1,8.07,8.37A25.21,25.21,0,0,1,645,444.59Zm-33.8-15.9a16.82,16.82,0,0,0-5.19,11.21H639a16.91,16.91,0,0,0-5.19-11.21,17.1,17.1,0,0,0-22.68,0ZM631.17,414l-8.77-7.36L613.62,414h-5.85l11.43-11h6.38L637,414Zm-11.48,69.66a4,4,0,0,1,0-5.5,4,4,0,0,1,5.41,0,4,4,0,0,1,0,5.5,4,4,0,0,1-5.41,0Z"/><path class="cls-2" d="M695.55,426q5.19,5.09,5.18,14.84v27h-6.29V441.49q0-7.26-3.63-11.07t-10.37-3.82q-7.53,0-11.92,4.48t-4.39,12.36V467.9h-6.29V421.29h6v8.59a17.55,17.55,0,0,1,7.13-6.6,22.89,22.89,0,0,1,10.59-2.35Q690.37,420.93,695.55,426Z"/><path class="cls-2" d="M783.59,402.14V467.9h-6v-9.22a19.11,19.11,0,0,1-7.49,7.18,21.89,21.89,0,0,1-10.5,2.49,23.66,23.66,0,0,1-11.88-3,21.55,21.55,0,0,1-8.33-8.42,26.7,26.7,0,0,1,0-24.63,21.25,21.25,0,0,1,8.33-8.38,23.94,23.94,0,0,1,11.88-3,22.08,22.08,0,0,1,10.23,2.35,19.41,19.41,0,0,1,7.49,6.87v-28ZM768.93,460.5a16,16,0,0,0,6.2-6.42,21,21,0,0,0,0-19,16,16,0,0,0-6.2-6.42,17.39,17.39,0,0,0-8.82-2.26,17.57,17.57,0,0,0-8.91,2.26,16,16,0,0,0-6.2,6.42,21,21,0,0,0,0,19,16,16,0,0,0,6.2,6.42,17.57,17.57,0,0,0,8.91,2.26A17.39,17.39,0,0,0,768.93,460.5Z"/><path class="cls-2" d="M831.45,425.5q4.88,4.56,4.87,13.51V467.9h-6v-7.27a14.41,14.41,0,0,1-6.25,5.68,21.85,21.85,0,0,1-9.79,2q-7.8,0-12.41-3.73a12.8,12.8,0,0,1-.31-19.41q4.29-3.63,13.69-3.63H830v-2.83q0-6-3.37-9.18t-9.83-3.14a24.88,24.88,0,0,0-8.51,1.46,21.38,21.38,0,0,0-7,4l-2.84-4.7a25.21,25.21,0,0,1,8.51-4.65,33.2,33.2,0,0,1,10.46-1.64Q826.57,420.93,831.45,425.5Zm-7.09,35.44a14.52,14.52,0,0,0,5.67-7v-7.62H815.41q-12,0-12,8.33a7.6,7.6,0,0,0,3.1,6.42c2.06,1.57,5,2.35,8.68,2.35A16.53,16.53,0,0,0,824.36,460.94Z"/><path class="cls-2" d="M876.65,402.14h6.29V467.9h-6.29Z"/><path class="cls-2" d="M900.4,409.76a4.31,4.31,0,0,1-1.33-3.18,4.25,4.25,0,0,1,1.33-3.11,4.47,4.47,0,0,1,3.28-1.33,4.53,4.53,0,0,1,3.28,1.29,4.14,4.14,0,0,1,1.32,3.06,4.62,4.62,0,0,1-7.88,3.27Zm.09,11.53h6.29V467.9h-6.29Z"/><path class="cls-2" d="M964.91,446.54h-39a16.69,16.69,0,0,0,5.58,11.75,18.56,18.56,0,0,0,12.77,4.47,20,20,0,0,0,8-1.55,17.34,17.34,0,0,0,6.29-4.56l3.55,4.07a19.75,19.75,0,0,1-7.76,5.67,27.84,27.84,0,0,1-23-1.1,22.06,22.06,0,0,1-8.64-8.47,24.09,24.09,0,0,1-3.1-12.23,25,25,0,0,1,3-12.23,21.41,21.41,0,0,1,8.15-8.41,22.77,22.77,0,0,1,11.66-3,22.47,22.47,0,0,1,11.6,3,21.25,21.25,0,0,1,8.07,8.37A25.21,25.21,0,0,1,965,444.59Zm-33.8-15.9a16.82,16.82,0,0,0-5.19,11.21H959a16.91,16.91,0,0,0-5.19-11.21,17.1,17.1,0,0,0-22.68,0ZM951,414l-8.59-5.23-8.6,5.23h-6l11.52-8.33h6.21L957,414Zm-6.25-11.88a24.77,24.77,0,0,1-3.5-2,14.53,14.53,0,0,0-2.44-1.55,4.7,4.7,0,0,0-2.08-.49,4,4,0,0,0-3.06,1.15,4.85,4.85,0,0,0-1.19,3.28h-3.81a8.5,8.5,0,0,1,2.21-6,7.58,7.58,0,0,1,5.68-2.17,8.16,8.16,0,0,1,3.41.7,26,26,0,0,1,3.5,2,24.12,24.12,0,0,0,2.57,1.55,4.44,4.44,0,0,0,2,.49,4.15,4.15,0,0,0,3.14-1.15,4.72,4.72,0,0,0,1.2-3.19h3.72a8.44,8.44,0,0,1-2.17,5.89,7.43,7.43,0,0,1-5.63,2.17A8.43,8.43,0,0,1,944.75,402.14Z"/><path class="cls-2" d="M1019.86,421.29V467.9h-6v-8.51A17.27,17.27,0,0,1,1007,466a20.63,20.63,0,0,1-9.93,2.35q-9.12,0-14.4-5.1t-5.27-14.93v-27h6.29v26.4q0,7.37,3.63,11.17t10.37,3.81q7.37,0,11.61-4.47t4.26-12.45V421.29Z"/><path class="cls-2" d="M1085.26,465.07a12,12,0,0,1-4.39,2.43,17.7,17.7,0,0,1-5.45.85q-6.56,0-10.1-3.55t-3.54-10V426.6h-8.34v-5.31h8.34V411.1h6.29v10.19h14.18v5.31h-14.18v27.83q0,4.17,2.08,6.34a7.89,7.89,0,0,0,6,2.17,11.69,11.69,0,0,0,3.77-.62,9.21,9.21,0,0,0,3.14-1.78Z"/><path class="cls-2" d="M1109.32,423.32a22.47,22.47,0,0,1,10.85-2.39v6.12l-1.5-.09c-4.91,0-8.74,1.5-11.52,4.52s-4.17,7.24-4.17,12.67V467.9h-6.29V421.29h6v9.13A15.19,15.19,0,0,1,1109.32,423.32Z"/><path class="cls-2" d="M1174.24,421.29V467.9h-6v-8.51a17.34,17.34,0,0,1-6.82,6.61,20.63,20.63,0,0,1-9.93,2.35q-9.14,0-14.4-5.1t-5.27-14.93v-27h6.29v26.4q0,7.37,3.63,11.17t10.37,3.81q7.35,0,11.61-4.47t4.25-12.45V421.29Zm-23.89,62.39a4,4,0,0,1,0-5.5,4,4,0,0,1,5.41,0,4,4,0,0,1,0,5.5,4,4,0,0,1-5.41,0Zm19.54-62.48h1.33a5.59,5.59,0,0,0,4.39-1.64,6.24,6.24,0,0,0,1.46-4.3,9.5,9.5,0,0,0-1.77-5.67l4.16-1.6a12.37,12.37,0,0,1,2.31,7.45,10.76,10.76,0,0,1-2.75,7.75q-2.74,2.88-7.8,2.88h-1.33Z"/><path class="cls-2" d="M1197.59,465.33a21.83,21.83,0,0,1-8.56-8.46,25.77,25.77,0,0,1,0-24.51,21.83,21.83,0,0,1,8.56-8.41,25.09,25.09,0,0,1,12.36-3,24,24,0,0,1,10.77,2.35,18,18,0,0,1,7.49,6.87l-4.7,3.19a14.85,14.85,0,0,0-5.85-5.19,17.36,17.36,0,0,0-7.71-1.72,18.18,18.18,0,0,0-9.08,2.26,15.9,15.9,0,0,0-6.3,6.42,21.12,21.12,0,0,0,0,19,16,16,0,0,0,6.3,6.38,18.18,18.18,0,0,0,9.08,2.26,17.75,17.75,0,0,0,7.71-1.68,14.42,14.42,0,0,0,5.85-5.14l4.7,3.19a17.94,17.94,0,0,1-7.54,6.87,24.07,24.07,0,0,1-10.72,2.35A25.09,25.09,0,0,1,1197.59,465.33Z"/><path class="cls-2" d="M1288.29,465.07a11.88,11.88,0,0,1-4.39,2.43,17.7,17.7,0,0,1-5.45.85q-6.56,0-10.1-3.55t-3.54-10V426.6h-8.33v-5.31h8.33V411.1h6.29v10.19h14.18v5.31H1271.1v27.83q0,4.17,2.08,6.34a7.89,7.89,0,0,0,6,2.17,11.69,11.69,0,0,0,3.77-.62,9.35,9.35,0,0,0,3.15-1.78Z"/><path class="cls-2" d="M1341.73,421.29V467.9h-6v-8.51a17.27,17.27,0,0,1-6.82,6.61,20.63,20.63,0,0,1-9.93,2.35q-9.12,0-14.4-5.1t-5.27-14.93v-27h6.29v26.4q0,7.37,3.63,11.17t10.37,3.81q7.37,0,11.61-4.47t4.26-12.45V421.29Z"/><path class="cls-2" d="M1398.53,421.29l-23.3,52.19q-2.84,6.57-6.56,9.31a14.67,14.67,0,0,1-9,2.75,18.22,18.22,0,0,1-6.29-1.07,13.42,13.42,0,0,1-5-3.19l2.92-4.69a11.61,11.61,0,0,0,8.51,3.54,8.59,8.59,0,0,0,5.45-1.77,16.13,16.13,0,0,0,4.21-6l2-4.52-20.82-46.52h6.56l17.54,39.61,17.55-39.61Z"/><path class="cls-2" d="M1446.65,446.54h-39a16.69,16.69,0,0,0,5.58,11.75,18.56,18.56,0,0,0,12.77,4.47,20,20,0,0,0,8-1.55,17.34,17.34,0,0,0,6.29-4.56l3.55,4.07a19.79,19.79,0,0,1-7.75,5.67,26.28,26.28,0,0,1-10.24,2,26,26,0,0,1-12.72-3.06,22.06,22.06,0,0,1-8.64-8.47,24.09,24.09,0,0,1-3.1-12.23,25,25,0,0,1,3-12.23,21.41,21.41,0,0,1,8.15-8.41,22.77,22.77,0,0,1,11.66-3,22.47,22.47,0,0,1,11.6,3,21.25,21.25,0,0,1,8.07,8.37,25.21,25.21,0,0,1,2.92,12.27Zm-33.8-15.9a16.82,16.82,0,0,0-5.19,11.21h33.06a16.91,16.91,0,0,0-5.19-11.21,17.1,17.1,0,0,0-22.68,0ZM1432.74,414l-8.59-5.23-8.6,5.23h-6l11.52-8.33h6.21l11.52,8.33Zm10.19-17.11h7.62l-12.76,9.67h-5.58Z"/><path class="cls-2" d="M1497.3,426q5.19,5.09,5.19,14.84v27h-6.3V441.49q0-7.26-3.63-11.07t-10.37-3.82q-7.53,0-11.92,4.48t-4.39,12.36V467.9h-6.29V421.29h6v8.59a17.55,17.55,0,0,1,7.13-6.6,23,23,0,0,1,10.59-2.35Q1492.12,420.93,1497.3,426Z"/><rect class="cls-1" x="49.88" y="124.67" width="75.19" height="10.21" rx="3.97"/><rect class="cls-1" x="150.6" y="124.67" width="75.19" height="10.21" rx="3.97"/><path class="cls-1" d="M91.59,134.74l-.42,0a5,5,0,0,1-4.53-5.37,89.46,89.46,0,0,1,6.44-24.59c7.3-17.37,19.2-29.19,34.41-34.18a5,5,0,1,1,3.1,9.44c-30.29,9.92-34,49.77-34,50.17A5,5,0,0,1,91.59,134.74Z"/><path class="cls-1" d="M193.27,133.31a4.82,4.82,0,0,1-4.81-4.67,63,63,0,0,1,3.46-20.48c5-14.66,14.79-25.45,28.32-31.2A4.82,4.82,0,1,1,224,85.83C213,90.51,205.32,99,201.15,111a54.74,54.74,0,0,0-3.05,17.38,4.82,4.82,0,0,1-4.69,5Z"/><path class="cls-1" d="M137.73,178.43a16.36,16.36,0,0,1-5.5-1,13.93,13.93,0,0,1-8.58-8c-3.93-9.53.66-26.1,16.36-59.09,10.48-22,23.81-35.94,33.14-43.72,10.28-8.57,18.12-11.86,18.45-12a4.82,4.82,0,0,1,3.7,8.91c-.14.06-7.15,3.07-16.31,10.78-8.49,7.15-20.63,19.92-30.27,40.18-4.94,10.38-20,42-16.15,51.26a4.33,4.33,0,0,0,2.92,2.56c2.39.85,4.29.45,5.83-1.23,2.19-2.38,3.36-7.43,1.21-12.07a4.82,4.82,0,1,1,8.76-4c3.53,7.64,2.35,16.94-2.85,22.63A14.36,14.36,0,0,1,137.73,178.43Z"/><path class="cls-3" d="M138.75,192.06c-9.43,0-16.85-3-22.11-8.94-8.67-9.79-8.68-25-7.89-33.2h-54a4.83,4.83,0,0,1,0-9.65h59.59a4.82,4.82,0,0,1,3.74,1.78,4.87,4.87,0,0,1,1,4c0,.19-4.09,20.58,4.86,30.66,3.92,4.42,9.84,6.23,18.1,5.54,8.46-.71,14.1-3.45,16.79-8.15,4.77-8.39,0-22.28-2.28-26.92a4.83,4.83,0,0,1,4.34-6.94H222.1a4.83,4.83,0,0,1,0,9.65H167.85c2.38,7.45,4.69,19.46-.7,29-4.34,7.66-12.54,12-24.38,13C141.4,192,140.05,192.06,138.75,192.06Z"/><path class="cls-3" d="M70.69,173.11q-.64,0-1.29-.06c-10-.85-16-11.41-16.67-12.61a4.82,4.82,0,0,1,8.48-4.6c1,1.87,4.89,7.27,9,7.6,3.32.27,6.6-3,8.77-5.72a4.84,4.84,0,0,1,4-1.87,4.77,4.77,0,0,1,3.8,2.14c.74,1,3.24,3.76,6.14,4,2.19.19,4.6-1,7.17-3.59a4.82,4.82,0,1,1,6.82,6.82c-4.72,4.73-9.75,6.87-15,6.37a17.23,17.23,0,0,1-9.07-3.87C79,171.31,74.94,173.11,70.69,173.11Z"/><path class="cls-3" d="M209.23,173.11c-4.25,0-8.33-1.8-12.19-5.37a17.16,17.16,0,0,1-9.07,3.87c-5.21.5-10.24-1.64-15-6.37a4.82,4.82,0,0,1,6.82-6.82c2.57,2.58,5,3.78,7.17,3.59,2.9-.26,5.4-3,6.14-4a4.77,4.77,0,0,1,3.8-2.14,4.86,4.86,0,0,1,4,1.87c2.17,2.77,5.45,6,8.78,5.72,4.26-.36,8.18-6.08,9-7.59a4.82,4.82,0,1,1,8.48,4.59c-.64,1.2-6.63,11.76-16.66,12.61C210.1,173.09,209.66,173.11,209.23,173.11Z"/><circle class="cls-4" cx="100.1" cy="185.95" r="7.38"/><circle class="cls-4" cx="89.32" cy="206.38" r="7.38"/><circle class="cls-4" cx="114" cy="205.96" r="7.38"/><circle class="cls-4" cx="76" cy="185.96" r="7.38"/><circle class="cls-4" cx="138.97" cy="206.38" r="7.38"/><circle class="cls-4" cx="163.94" cy="206.24" r="7.38"/><circle class="cls-4" cx="178.69" cy="185.95" r="7.38"/><circle class="cls-4" cx="200.54" cy="185.95" r="7.38"/><circle class="cls-4" cx="189.19" cy="206.24" r="7.38"/><path class="cls-4" d="M220.29,131.5a.43.43,0,0,0,0-.85.43.43,0,0,0,0,.85Z"/><path class="cls-2" d="M289.49,143.27a138.46,138.46,0,1,0-158.82,137l-5.65,175c-.51,15.72,6.16,29,14.56,29h22.89c8.57,0,15.3-13.8,14.52-29.81l-6.28-174.11A138.49,138.49,0,0,0,289.49,143.27ZM151,267A123.74,123.74,0,1,1,274.77,143.27,123.74,123.74,0,0,1,151,267Z"/><path class="cls-5" d="M259.29,91.5A125.62,125.62,0,0,0,143.6,14.71h-.18a4,4,0,0,1,0,2,4.32,4.32,0,0,1,.44,2.1A121.81,121.81,0,1,1,58.28,53.87a38,38,0,0,1-2.8-3.1l-.79.77a125.69,125.69,0,0,0,88.75,214.63h.16A125.8,125.8,0,0,0,259.29,91.5Z"/><path class="cls-5" d="M269.84,85.77A140.45,140.45,0,1,0,118,279.09l-5.58,173.13c-.36,11.18,2.74,21.56,8.1,27.09a11.84,11.84,0,0,0,8.5,4h22.88a11.93,11.93,0,0,0,8.6-4.1c5.47-5.74,8.52-16.41,8-27.82L162.22,279.2A140.54,140.54,0,0,0,269.84,85.77Zm-110,189.64-1.83.26,6.35,175.9c.49,10.19-2.19,19.93-6.85,24.81a7.82,7.82,0,0,1-5.62,2.82H129a7.79,7.79,0,0,1-5.55-2.74c-4.54-4.7-7.27-14.16-7-24.11l5.7-176.78-1.81-.26C54.09,265.54,4.1,207.56,4.1,140.44,4.1,65.26,65.26,4.1,140.44,4.1S276.77,65.26,276.77,140.44C276.77,207.9,226.49,265.92,159.82,275.41Z"/></g></g></svg>