<?xml version="1.0" standalone="no"?>
<!DOCTYPE svg PUBLIC "-//W3C//DTD SVG 20010904//EN"
 "http://www.w3.org/TR/2001/REC-SVG-20010904/DTD/svg10.dtd">
<svg version="1.0" xmlns="http://www.w3.org/2000/svg"
 width="149.000000pt" height="149.000000pt" viewBox="0 0 149.000000 149.000000"
 preserveAspectRatio="xMidYMid meet">

<g transform="translate(0.000000,149.000000) scale(0.100000,-0.100000)"
fill="#000000" stroke="none">
<path d="M80 1270 l0 -140 140 0 140 0 0 140 0 140 -140 0 -140 0 0 -140z
m240 0 l0 -100 -100 0 -100 0 0 100 0 100 100 0 100 0 0 -100z"/>
<path d="M160 1270 l0 -60 60 0 60 0 0 60 0 60 -60 0 -60 0 0 -60z"/>
<path d="M440 1390 c0 -13 7 -20 20 -20 13 0 20 -7 20 -20 0 -17 -7 -20 -40
-20 l-40 0 0 -120 c0 -113 1 -120 20 -120 13 0 20 -7 20 -19 0 -10 -9 -21 -20
-24 -11 -3 -20 -12 -20 -21 0 -12 -10 -16 -40 -16 -33 0 -40 3 -40 20 0 13 7
20 20 20 13 0 20 7 20 20 0 19 -7 20 -100 20 l-100 0 0 -61 c0 -52 -3 -62 -20
-66 -11 -3 -20 -12 -20 -19 0 -8 -9 -14 -20 -14 -18 0 -20 -7 -20 -59 0 -51 3
-61 20 -66 11 -3 20 -15 20 -26 0 -12 -7 -19 -20 -19 -16 0 -20 -7 -20 -35 0
-28 4 -35 20 -35 15 0 20 -7 20 -25 0 -18 5 -25 20 -25 13 0 20 -7 20 -20 0
-13 7 -20 20 -20 13 0 20 -7 20 -20 0 -18 -7 -20 -60 -20 l-60 0 0 -80 c0 -73
2 -80 20 -80 18 0 20 7 20 65 l0 65 40 0 c36 0 40 -2 40 -25 0 -18 5 -25 20
-25 17 0 20 7 20 40 0 33 4 40 19 40 10 0 21 -9 24 -20 6 -23 37 -17 37 6 0 8
9 14 20 14 13 0 20 7 20 20 0 13 7 20 20 20 13 0 20 -7 20 -20 0 -13 -7 -20
-20 -20 -11 0 -20 -7 -20 -15 0 -8 -9 -15 -20 -15 -15 0 -20 -7 -20 -25 0 -33
37 -35 42 -2 3 19 9 22 48 23 68 2 70 3 70 19 0 11 11 15 40 15 l40 0 0 65 c0
49 -3 65 -14 65 -7 0 -16 9 -19 21 -7 25 -40 22 -45 -4 -3 -13 3 -17 23 -17
22 0 26 -4 23 -22 -2 -19 -10 -24 -45 -26 -35 -3 -43 -7 -43 -23 0 -12 -7 -19
-20 -19 -17 0 -20 7 -20 46 0 43 -1 45 -27 44 -46 -3 -53 -1 -53 20 0 17 7 20
40 20 29 0 40 4 40 15 0 8 9 15 20 15 13 0 20 7 20 19 0 10 -9 21 -20 24 -12
3 -20 14 -20 27 0 18 -5 21 -37 18 -31 -2 -39 -7 -41 -25 -2 -15 -10 -23 -23
-23 -12 0 -19 -7 -19 -20 0 -13 -7 -20 -20 -20 -11 0 -20 -7 -20 -15 0 -11
-11 -15 -40 -15 -33 0 -40 -3 -40 -20 0 -13 -7 -20 -20 -20 -16 0 -20 7 -20
35 0 34 1 35 40 35 33 0 40 3 40 20 0 13 7 20 19 20 13 0 21 8 23 23 2 18 10
23 41 25 29 3 37 7 37 23 0 17 7 19 60 19 53 0 60 -2 60 -20 0 -27 36 -27 43
0 7 26 49 28 46 3 -1 -10 -1 -30 0 -45 1 -25 5 -28 36 -28 28 0 35 -4 35 -20
0 -13 -7 -20 -20 -20 -11 0 -20 -7 -20 -15 0 -8 9 -15 19 -15 16 0 20 -8 23
-42 2 -31 8 -44 20 -46 11 -2 18 5 20 20 2 15 10 23 23 23 18 0 20 -8 23 -77
l3 -78 34 0 c31 0 35 -3 35 -25 0 -16 -6 -25 -15 -25 -12 0 -15 -13 -15 -56 0
-47 -3 -57 -20 -61 -11 -3 -20 -14 -20 -24 0 -14 -7 -19 -25 -19 -22 0 -25 4
-25 40 0 33 -3 40 -20 40 -13 0 -20 -7 -20 -20 0 -13 -7 -20 -20 -20 -13 0
-20 7 -20 19 0 10 -9 21 -20 24 -13 3 -18 10 -14 21 5 13 -2 16 -36 16 -33 0
-43 4 -47 20 -7 27 -43 27 -43 0 0 -17 -7 -20 -40 -20 -33 0 -40 -3 -40 -20 0
-17 7 -20 40 -20 33 0 40 -3 40 -20 0 -13 7 -20 20 -20 13 0 20 -7 20 -20 0
-13 -7 -20 -20 -20 -18 0 -20 -7 -20 -80 l0 -80 40 0 c33 0 40 -3 40 -20 0
-17 -7 -20 -40 -20 -33 0 -40 -3 -40 -20 0 -18 7 -20 61 -20 52 0 62 3 66 20
3 11 12 20 19 20 8 0 14 9 14 20 0 11 -7 20 -15 20 -8 0 -15 9 -15 20 0 11 7
20 15 20 8 0 15 -9 15 -20 0 -13 7 -20 20 -20 17 0 20 -7 20 -40 l0 -40 65 0
65 0 0 40 c0 39 1 40 35 40 28 0 35 4 35 19 0 13 8 21 22 23 34 5 37 38 4 38
-19 0 -26 -5 -26 -20 0 -16 -7 -20 -35 -20 -28 0 -35 4 -35 20 0 11 7 20 15
20 8 0 15 9 15 20 0 11 -7 20 -15 20 -8 0 -15 9 -15 20 0 11 7 20 15 20 8 0
15 -9 15 -20 0 -18 7 -20 65 -20 58 0 65 -2 65 -20 0 -13 7 -20 20 -20 13 0
20 -7 20 -20 0 -13 -7 -20 -20 -20 -13 0 -20 -7 -20 -20 0 -13 7 -20 20 -20
13 0 20 -7 20 -19 0 -10 9 -21 20 -24 11 -3 19 -11 18 -19 -2 -10 17 -14 80
-16 77 -3 82 -2 82 18 0 13 7 20 20 20 13 0 20 -7 20 -20 0 -13 7 -20 20 -20
13 0 20 7 20 20 0 13 7 20 20 20 13 0 20 -7 20 -20 0 -13 7 -20 20 -20 13 0
20 7 20 20 0 13 7 20 20 20 13 0 20 -7 20 -20 0 -13 7 -20 20 -20 13 0 20 7
20 20 0 13 -7 20 -20 20 -18 0 -20 7 -20 60 0 53 2 60 20 60 13 0 20 -7 20
-20 0 -13 7 -20 20 -20 13 0 20 7 20 20 0 13 -7 20 -20 20 -13 0 -20 7 -20 20
0 13 7 20 20 20 13 0 20 7 20 20 0 13 -7 20 -20 20 -13 0 -20 -7 -20 -20 0
-13 -7 -20 -20 -20 -17 0 -20 7 -20 40 l0 40 40 0 40 0 0 59 c0 50 -3 59 -20
64 -12 3 -20 14 -20 27 0 16 -4 20 -16 16 -11 -4 -18 1 -21 14 -3 11 -14 20
-24 20 -12 0 -19 7 -19 20 0 13 7 20 20 20 13 0 20 -7 20 -20 0 -13 7 -20 20
-20 11 0 20 -6 20 -14 0 -15 24 -28 34 -19 3 4 6 21 6 40 0 26 -4 33 -20 33
-17 0 -20 7 -20 45 0 38 -3 45 -20 45 -18 0 -20 7 -20 55 0 48 2 55 20 55 14
0 20 7 20 21 0 12 8 23 20 26 16 4 20 14 20 44 0 32 -3 39 -20 39 -17 0 -20 7
-20 40 0 33 3 40 20 40 13 0 20 7 20 20 0 13 -7 20 -20 20 -13 0 -20 -7 -20
-20 0 -13 -7 -20 -20 -20 -17 0 -20 7 -20 40 l0 40 -100 0 -100 0 0 -40 0 -40
-40 0 -40 0 0 60 c0 53 2 60 20 60 17 0 20 7 20 40 l0 40 -40 0 c-33 0 -40 3
-40 20 0 17 7 20 40 20 l40 0 0 40 c0 33 -3 40 -20 40 -13 0 -20 -7 -20 -20 0
-13 -7 -20 -20 -20 -13 0 -20 7 -20 19 0 13 -8 21 -22 23 -19 2 -24 10 -26 41
l-3 38 -77 -3 -77 -3 0 -35 c0 -29 4 -36 23 -38 29 -4 31 -42 1 -42 -12 0 -23
-8 -26 -20 -5 -19 -14 -20 -137 -20 -73 0 -135 3 -139 6 -9 10 4 34 19 34 8 0
14 9 14 20 0 13 7 20 20 20 17 0 20 7 20 41 l0 40 -37 -3 c-26 -2 -38 -8 -38
-18 0 -8 -10 -16 -22 -18 -18 -3 -23 2 -23 17 0 14 -6 21 -20 21 -13 0 -20 -7
-20 -20z m450 -40 c0 -13 7 -20 20 -20 17 0 20 -7 20 -40 0 -43 23 -57 33 -20
3 12 14 20 26 20 14 0 21 -6 21 -20 0 -15 -7 -20 -25 -20 -24 0 -25 -2 -22
-57 2 -48 -1 -58 -15 -61 -13 -2 -18 3 -18 17 0 14 -6 21 -20 21 -13 0 -20 -7
-20 -20 0 -13 -7 -20 -20 -20 -17 0 -20 -7 -20 -40 0 -36 -2 -40 -25 -40 -18
0 -25 5 -25 20 0 13 -7 20 -20 20 -17 0 -20 7 -20 40 0 33 4 40 19 40 10 0 21
-9 24 -20 3 -12 14 -20 26 -20 14 0 21 6 21 20 0 15 -7 20 -25 20 -22 0 -25 4
-25 40 0 36 3 40 25 40 18 0 25 5 25 20 0 13 7 20 20 20 13 0 20 7 20 20 0 13
-7 20 -20 20 -13 0 -20 7 -20 20 0 13 7 20 20 20 13 0 20 -7 20 -20z m-410
-180 c0 -73 -2 -80 -20 -80 -18 0 -20 7 -20 73 0 76 4 87 27 87 10 0 13 -20
13 -80z m120 20 c0 -13 7 -20 19 -20 23 0 29 -13 23 -52 -4 -25 -8 -28 -43
-28 -32 0 -39 3 -39 20 0 11 -6 20 -14 20 -23 0 -29 31 -7 37 11 3 21 13 24
24 7 25 37 25 37 -1z m160 0 c0 -11 -7 -20 -15 -20 -11 0 -15 -11 -15 -40 0
-29 4 -40 15 -40 8 0 15 -9 15 -20 0 -11 -7 -20 -15 -20 -8 0 -15 -9 -15 -20
0 -13 -7 -20 -19 -20 -18 0 -20 9 -23 96 -2 53 -1 98 1 100 2 2 19 4 38 4 26
0 33 -4 33 -20z m290 -40 c0 -13 -7 -20 -20 -20 -13 0 -20 7 -20 20 0 13 7 20
20 20 13 0 20 -7 20 -20z m-86 -125 c1 -53 3 -60 21 -60 11 0 20 -7 20 -15 0
-23 -72 -27 -77 -4 -2 14 -15 18 -63 18 -53 1 -60 3 -60 21 0 18 8 20 63 23
48 2 62 6 62 18 0 9 -9 18 -20 21 -11 3 -20 14 -20 25 0 16 6 19 37 16 l36 -3
1 -60z m-684 5 c0 -13 7 -20 20 -20 15 0 20 -7 20 -25 0 -27 -1 -28 -24 -19
-9 3 -16 15 -16 25 0 12 -7 19 -20 19 -13 0 -20 -7 -20 -19 0 -11 9 -23 20
-26 11 -3 20 -13 20 -21 0 -22 37 -17 43 6 3 13 10 18 21 14 23 -9 20 -34 -4
-34 -13 0 -20 -7 -20 -20 0 -13 -7 -20 -20 -20 -13 0 -20 7 -20 20 0 17 -7 20
-40 20 -33 0 -40 -3 -40 -20 0 -17 -7 -20 -40 -20 -33 0 -40 3 -40 20 0 17 7
20 40 20 l40 0 0 40 c0 33 4 40 19 40 10 0 21 9 24 20 3 11 12 20 21 20 9 0
16 -8 16 -20z m200 0 c0 -13 -7 -20 -20 -20 -13 0 -20 7 -20 20 0 13 7 20 20
20 13 0 20 -7 20 -20z m120 0 c0 -13 -7 -20 -20 -20 -19 0 -27 20 -13 33 13
14 33 6 33 -13z m647 0 c3 -11 14 -20 25 -20 14 0 19 -6 16 -22 -2 -13 -10
-23 -18 -23 -8 0 -16 10 -18 23 -2 14 -10 22 -23 22 -16 0 -19 -7 -19 -40 0
-33 3 -40 20 -40 17 0 20 -7 20 -40 0 -33 3 -40 20 -40 17 0 20 7 20 40 0 33
3 40 20 40 17 0 20 -7 20 -40 0 -33 -3 -40 -20 -40 -14 0 -20 -7 -20 -21 0
-12 -8 -23 -19 -26 -11 -3 -21 -13 -24 -24 -7 -25 -37 -25 -37 1 0 13 -7 20
-20 20 -17 0 -20 7 -20 45 l0 45 -40 0 c-33 0 -40 3 -40 20 0 13 -7 20 -20 20
-11 0 -20 7 -20 15 0 8 -9 15 -20 15 -15 0 -20 7 -20 26 0 33 33 30 38 -4 3
-18 10 -22 43 -22 28 0 39 -4 39 -15 0 -9 9 -15 21 -15 14 0 19 5 17 18 -2 9
-10 17 -18 17 -8 0 -16 10 -18 23 -3 20 1 22 37 22 34 0 41 3 41 20 0 12 7 20
16 20 9 0 18 -9 21 -20z m-722 -44 c0 -22 -14 -29 -34 -17 -19 12 -6 43 16 39
10 -2 18 -12 18 -22z m-45 -42 c0 -10 -13 -14 -40 -14 -27 0 -40 4 -40 13 0
21 6 23 45 19 21 -3 35 -10 35 -18z m120 4 c0 -11 7 -18 20 -18 11 0 20 6 20
14 0 19 11 22 70 18 35 -3 50 -8 50 -18 0 -10 12 -14 41 -14 32 0 42 -4 46
-19 4 -14 15 -21 41 -23 26 -2 38 -8 40 -20 2 -13 -3 -18 -17 -18 -16 0 -21
-6 -21 -25 0 -18 5 -25 20 -25 13 0 20 -7 20 -20 0 -11 7 -20 15 -20 8 0 15
-7 15 -15 0 -8 -7 -15 -15 -15 -8 0 -15 -9 -15 -20 0 -13 -7 -20 -20 -20 -12
0 -20 7 -20 16 0 9 -9 18 -20 21 -11 3 -20 12 -20 19 0 10 -13 14 -45 14 -33
0 -45 -4 -45 -15 0 -8 -7 -15 -15 -15 -10 0 -15 11 -15 35 0 24 5 35 15 35 9
0 15 9 15 25 0 16 -6 25 -15 25 -8 0 -15 9 -15 20 0 11 7 20 15 20 8 0 15 9
15 20 0 18 -7 20 -60 20 -53 0 -60 -2 -60 -20 0 -12 -7 -20 -16 -20 -9 0 -18
-9 -21 -20 -3 -11 -14 -20 -24 -20 -12 0 -19 7 -19 20 0 11 -7 20 -15 20 -8 0
-15 9 -15 20 0 11 6 20 14 20 7 0 16 8 18 18 3 10 13 19 22 19 9 0 16 -8 16
-19z m88 -80 c3 -13 -3 -18 -22 -18 -21 0 -26 -5 -26 -25 0 -18 -5 -25 -20
-25 -14 0 -20 7 -20 21 0 12 8 23 20 26 11 3 20 14 20 25 0 25 43 21 48 -4z
m359 3 c3 -11 14 -21 25 -24 35 -10 18 -42 -24 -45 -32 -3 -37 0 -40 20 -2 15
-11 24 -25 26 -22 3 -30 21 -16 35 3 4 22 7 41 7 25 0 35 -5 39 -19z m-847
-46 c0 -22 -4 -25 -40 -25 -36 0 -40 3 -40 25 0 23 4 25 40 25 36 0 40 -2 40
-25z m160 -45 c0 -13 -7 -20 -20 -20 -13 0 -20 7 -20 20 0 13 7 20 20 20 13 0
20 -7 20 -20z m810 -35 c0 -8 -9 -15 -20 -15 -11 0 -20 7 -20 15 0 8 9 15 20
15 11 0 20 -7 20 -15z m-440 -34 c0 -19 -23 -35 -34 -24 -14 15 -5 43 14 43
13 0 20 -7 20 -19z m72 -23 c2 -35 7 -43 23 -43 13 0 21 8 23 23 2 14 10 22
23 22 16 0 19 -7 19 -45 0 -38 3 -45 20 -45 12 0 20 -7 20 -16 0 -9 -9 -18
-20 -21 -11 -3 -20 -11 -20 -18 0 -8 -9 -15 -20 -17 -12 -2 -21 -6 -20 -10 0
-5 0 -42 0 -83 l0 -75 40 0 c33 0 40 3 40 20 0 13 -7 20 -20 20 -13 0 -20 7
-20 20 0 16 7 20 35 20 21 0 35 -5 36 -12 0 -7 2 -33 2 -58 2 -38 5 -45 25
-48 14 -2 22 -10 22 -23 0 -12 7 -19 20 -19 13 0 20 -7 20 -20 0 -13 7 -20 20
-20 13 0 20 -7 20 -20 0 -13 -7 -20 -20 -20 -13 0 -20 7 -20 20 0 27 -36 27
-43 -1 -7 -25 -40 -22 -45 4 -3 12 3 17 22 17 19 0 26 5 26 20 0 18 -7 20 -60
20 -53 0 -60 2 -60 19 0 16 -8 20 -42 23 l-43 3 -3 56 c-2 47 -6 58 -22 62
-26 7 -26 37 0 37 17 0 20 7 20 40 0 39 -1 40 -35 40 -28 0 -35 4 -35 20 0 11
7 20 15 20 8 0 15 9 15 20 0 11 -7 20 -15 20 -9 0 -15 9 -15 25 0 16 6 25 15
25 8 0 15 9 15 20 0 13 7 20 19 20 16 0 20 -8 23 -42z m448 23 c0 -11 9 -21
21 -24 13 -4 20 -12 17 -24 -5 -26 -32 -22 -36 5 -2 14 -10 22 -23 22 -12 0
-19 7 -19 20 0 13 7 20 20 20 13 0 20 -7 20 -19z m-80 -66 c0 -38 3 -45 20
-45 13 0 20 -7 20 -20 0 -13 7 -20 20 -20 11 0 20 -6 20 -14 0 -7 9 -16 20
-19 26 -7 27 -47 1 -47 -10 0 -21 -9 -24 -20 -4 -15 -14 -20 -41 -20 -29 0
-36 4 -36 20 0 13 -7 20 -20 20 -15 0 -20 7 -20 25 0 18 5 25 20 25 15 0 20
-7 20 -25 0 -22 4 -25 40 -25 36 0 40 3 40 25 0 18 -5 25 -20 25 -11 0 -20 7
-20 15 0 11 -11 15 -40 15 -29 0 -40 -4 -40 -15 0 -11 -11 -15 -40 -15 -36 0
-40 -2 -40 -25 0 -18 5 -25 20 -25 26 0 26 -30 1 -37 -11 -3 -21 -13 -24 -24
-7 -25 -37 -25 -37 1 0 15 -7 20 -25 20 -33 0 -35 37 -2 42 14 2 23 11 25 26
2 14 10 22 23 22 10 0 19 6 19 14 0 10 -13 16 -42 18 -30 2 -42 8 -44 21 -2
14 6 17 42 17 37 0 44 3 44 20 0 17 -7 20 -39 20 -42 0 -57 11 -47 35 4 12 27
15 106 15 l100 0 0 -45z m-890 -25 c0 -17 -7 -20 -40 -20 -33 0 -40 3 -40 20
0 17 7 20 40 20 33 0 40 -3 40 -20z m80 0 c0 -13 -7 -20 -20 -20 -13 0 -20 7
-20 20 0 13 7 20 20 20 13 0 20 -7 20 -20z m565 -115 c0 -11 -8 -21 -17 -23
-14 -3 -18 3 -18 23 0 20 4 26 18 23 9 -2 17 -12 17 -23z m445 -85 c0 -17 -7
-20 -40 -20 l-40 0 0 -40 c0 -33 -3 -40 -20 -40 -17 0 -20 7 -20 40 0 33 3 40
20 40 13 0 20 7 20 20 0 17 7 20 40 20 33 0 40 -3 40 -20z m-890 -40 c0 -15 7
-20 26 -20 20 0 25 -4 20 -16 -4 -11 1 -18 14 -21 11 -3 20 -14 20 -24 0 -12
7 -19 20 -19 13 0 20 7 20 20 0 13 7 20 19 20 10 0 21 -9 24 -20 3 -12 14 -20
27 -20 29 0 23 -34 -8 -38 -18 -3 -22 -10 -22 -42 0 -32 4 -39 22 -42 34 -5
37 -38 4 -38 -19 0 -26 5 -26 20 0 13 -7 20 -20 20 -13 0 -20 7 -20 20 0 13
-7 20 -20 20 -17 0 -20 7 -20 39 0 30 -4 40 -20 44 -13 3 -18 10 -14 21 5 12
0 16 -21 16 -24 0 -26 -3 -23 -37 2 -31 7 -39 26 -41 14 -2 22 -10 22 -23 0
-16 -7 -19 -45 -19 l-45 0 0 60 c0 53 2 60 20 60 13 0 20 7 20 20 0 13 -7 20
-20 20 -13 0 -20 7 -20 20 0 13 7 20 20 20 13 0 20 -7 20 -20z m728 -37 l-3
-58 -57 -3 -58 -3 0 61 0 60 60 0 61 0 -3 -57z m122 -83 c0 -13 -7 -20 -20
-20 -13 0 -20 -7 -20 -20 0 -13 -7 -20 -20 -20 -13 0 -20 -7 -20 -20 0 -13 7
-20 20 -20 13 0 20 -7 20 -20 0 -13 -7 -20 -20 -20 -13 0 -20 7 -20 20 0 13
-7 20 -20 20 -13 0 -20 -7 -20 -20 0 -13 -7 -20 -20 -20 -13 0 -20 7 -20 20 0
13 7 20 20 20 13 0 20 7 20 20 0 17 -7 20 -40 20 -33 0 -40 3 -40 20 0 17 7
20 40 20 33 0 40 -3 40 -20 0 -13 7 -20 20 -20 13 0 20 7 20 20 0 13 7 20 20
20 13 0 20 7 20 20 0 13 7 20 20 20 13 0 20 -7 20 -20z m-240 -120 c0 -17 -7
-20 -40 -20 -33 0 -40 3 -40 20 0 17 7 20 40 20 33 0 40 -3 40 -20z"/>
<path d="M890 1230 c0 -13 -7 -20 -18 -20 -24 0 -32 -8 -25 -26 8 -22 43 -17
43 6 0 13 7 20 20 20 13 0 20 7 20 20 0 13 -7 20 -20 20 -13 0 -20 -7 -20 -20z"/>
<path d="M560 1150 c0 -13 7 -20 20 -20 13 0 20 7 20 20 0 13 -7 20 -20 20
-13 0 -20 -7 -20 -20z"/>
<path d="M760 870 c0 -17 7 -20 45 -20 38 0 45 3 45 20 0 17 -7 20 -45 20 -38
0 -45 -3 -45 -20z"/>
<path d="M804 583 c2 -10 11 -18 22 -18 10 0 20 8 22 18 3 12 -3 17 -21 17
-18 0 -25 -5 -23 -17z"/>
<path d="M1090 620 c0 -13 -7 -20 -20 -20 -13 0 -20 -7 -20 -20 0 -13 7 -20
20 -20 13 0 20 7 20 19 0 10 9 21 20 24 11 3 20 12 20 21 0 9 -8 16 -20 16
-13 0 -20 -7 -20 -20z"/>
<path d="M1130 340 c0 -13 7 -20 20 -20 13 0 20 7 20 20 0 13 -7 20 -20 20
-13 0 -20 -7 -20 -20z"/>
<path d="M645 1400 c-4 -7 -3 -16 3 -22 14 -14 45 -2 40 15 -6 16 -34 21 -43
7z"/>
<path d="M1010 1390 c0 -13 7 -20 20 -20 13 0 20 7 20 20 0 13 -7 20 -20 20
-13 0 -20 -7 -20 -20z"/>
<path d="M1130 1270 l0 -140 140 0 140 0 0 140 0 140 -140 0 -140 0 0 -140z
m240 0 l0 -100 -100 0 -100 0 0 100 0 100 100 0 100 0 0 -100z"/>
<path d="M1210 1270 l0 -60 60 0 60 0 0 60 0 60 -60 0 -60 0 0 -60z"/>
<path d="M690 1355 c0 -9 -10 -19 -23 -24 -13 -5 -24 -16 -24 -25 0 -12 11
-16 44 -16 l43 0 0 40 c0 33 -3 40 -20 40 -11 0 -20 -7 -20 -15z"/>
<path d="M80 1070 c0 -13 7 -20 20 -20 13 0 20 7 20 20 0 13 -7 20 -20 20 -13
0 -20 -7 -20 -20z"/>
<path d="M1370 745 c0 -8 9 -15 20 -15 11 0 20 7 20 15 0 8 -9 15 -20 15 -11
0 -20 -7 -20 -15z"/>
<path d="M600 565 c0 -28 4 -35 20 -35 15 0 20 -7 20 -25 0 -19 -5 -25 -21
-25 -14 0 -19 -5 -17 -17 5 -26 38 -29 38 -4 0 13 8 21 23 23 24 3 32 42 10
44 -7 1 -17 2 -23 3 -5 0 -10 17 -10 36 0 28 -4 35 -20 35 -16 0 -20 -7 -20
-35z"/>
<path d="M482 508 c2 -19 10 -24 41 -26 34 -3 37 -1 37 22 0 24 -4 26 -41 26
-36 0 -40 -2 -37 -22z"/>
<path d="M160 420 c0 -18 7 -20 60 -20 53 0 60 2 60 20 0 18 -7 20 -60 20 -53
0 -60 -2 -60 -20z"/>
<path d="M80 220 l0 -140 140 0 140 0 0 140 0 140 -140 0 -140 0 0 -140z m240
0 l0 -100 -100 0 -100 0 0 100 0 100 100 0 100 0 0 -100z"/>
<path d="M160 220 l0 -60 60 0 60 0 0 60 0 60 -60 0 -60 0 0 -60z"/>
<path d="M760 100 c0 -13 7 -20 20 -20 13 0 20 7 20 20 0 13 -7 20 -20 20 -13
0 -20 -7 -20 -20z"/>
</g>
</svg>
