<svg width="327" height="56" viewBox="0 0 327 56" fill="none" xmlns="http://www.w3.org/2000/svg">
<g filter="url(#filter0_d_11139_2632)">
<path d="M33.704 38.168C34.216 39.32 34.472 40.6213 34.472 42.072C34.472 43.5227 33.96 44.7813 32.936 45.848C31.9547 46.872 30.7387 47.384 29.288 47.384C24.7653 47.384 17.6827 47.128 8.04 46.616C7.272 46.5733 6.58933 46.3387 5.992 45.912C5.39467 45.4427 5.096 44.8667 5.096 44.184C5.096 41.9227 5.26667 38.104 5.608 32.728C5.992 27.352 6.184 22.3387 6.184 17.688C6.184 12.9947 5.736 7.61867 4.84 1.56C7.99733 1.816 12.2427 1.944 17.576 1.944C22.9093 1.944 28.008 1.56 32.872 0.791996C33.384 1.73066 33.64 2.86133 33.64 4.184C33.64 5.464 33.128 6.616 32.104 7.64C31.1227 8.62133 29.8853 9.112 28.392 9.112C26.9413 9.112 24.5947 8.89867 21.352 8.472C18.152 8.04533 15.784 7.832 14.248 7.832C13.9067 12.1413 13.7147 16.1947 13.672 19.992C16.36 20.248 19.24 20.376 22.312 20.376C25.4267 20.376 28.0933 19.928 30.312 19.032C30.824 19.9707 31.08 21.1013 31.08 22.424C31.08 23.704 30.568 24.8773 29.544 25.944C28.5627 26.968 27.368 27.48 25.96 27.48C24.5947 27.48 22.5467 27.224 19.816 26.712C17.0853 26.1573 15.016 25.88 13.608 25.88C13.608 32.6213 13.7573 37.5707 14.056 40.728C16.104 40.8987 17.704 40.984 18.856 40.984C24.488 40.984 29.4373 40.0453 33.704 38.168ZM81.1895 27.544C81.7015 28.44 81.9575 29.4853 81.9575 30.68C81.9575 31.832 81.4668 32.792 80.4855 33.56C79.5468 34.2853 78.5015 34.648 77.3495 34.648C76.2402 34.648 74.2135 34.4773 71.2695 34.136C68.3682 33.7947 65.8508 33.624 63.7175 33.624C61.6268 33.624 59.9628 33.9653 58.7255 34.648C58.2135 33.752 57.9575 32.728 57.9575 31.576C57.9575 30.3813 58.4268 29.4213 59.3655 28.696C60.3468 27.928 61.3922 27.544 62.5015 27.544C63.6535 27.544 65.6802 27.7147 68.5815 28.056C71.5255 28.3973 74.0428 28.568 76.1335 28.568C78.2668 28.568 79.9522 28.2267 81.1895 27.544ZM109.067 1.368L122.571 1.56C129.568 1.56 134.688 1.304 137.931 0.791996C138.4 1.688 138.635 2.712 138.635 3.864C138.635 5.016 138.123 6.06133 137.099 7C136.075 7.896 134.837 8.344 133.387 8.344L126.027 7.512C126.027 7.81067 125.92 9.13333 125.707 11.48C125.109 17.24 124.811 23.0213 124.811 28.824C124.811 34.6267 125.259 40.4293 126.155 46.232C124.747 46.744 123.275 47 121.739 47C120.203 47 118.88 46.5733 117.771 45.72C116.661 44.824 116.107 43.5013 116.107 41.752C116.107 39.96 116.32 36.824 116.747 32.344C117.173 27.864 117.387 23.512 117.387 19.288C117.387 15.0213 117.173 11.0533 116.747 7.384C111.584 7.64 107.552 8.36533 104.651 9.56C104.139 8.57866 103.883 7.49066 103.883 6.296C103.883 5.05866 104.373 3.928 105.355 2.904C106.336 1.88 107.573 1.368 109.067 1.368ZM206.794 5.144L206.474 15.704C206.474 21.5067 206.644 26.712 206.986 31.32C207.327 35.8853 208.095 40.856 209.29 46.232C208.351 47 206.858 47.384 204.81 47.384C200.842 47.384 198.858 45.656 198.858 42.2C198.858 39.3413 198.986 34.968 199.242 29.08C199.54 23.192 199.69 18.584 199.69 15.256C197.386 18.584 194.954 22.7013 192.394 27.608C189.876 32.472 188.618 35.4587 188.618 36.568C188.618 37.6773 188.724 38.5307 188.938 39.128C187.999 39.7253 186.74 40.024 185.162 40.024C183.626 40.024 182.324 39.5973 181.258 38.744C180.234 37.8907 179.359 36.7173 178.634 35.224C177.951 33.7307 176.714 30.808 174.922 26.456C173.172 22.0613 171.572 18.2853 170.122 15.128C169.012 21.9973 168.458 28.0773 168.458 33.368C168.458 38.6587 168.628 42.9467 168.97 46.232C167.604 46.744 166.239 47 164.874 47C162.143 47 160.778 45.6347 160.778 42.904C160.778 40.8133 161.247 36.6533 162.186 30.424C163.167 24.152 163.658 18.8613 163.658 14.552C163.658 10.2427 163.423 6.21066 162.954 2.456C165.258 1.85866 167.05 1.56 168.33 1.56C170.676 1.56 172.255 2.392 173.066 4.056C174.346 6.744 176.223 11.032 178.698 16.92C181.215 22.7653 183.263 27.2667 184.842 30.424C185.268 29.528 186.25 27.608 187.786 24.664C189.364 21.6773 190.666 19.1387 191.69 17.048C192.756 14.9147 193.823 12.3973 194.89 9.496C195.999 6.552 196.703 3.992 197.002 1.816C198.538 1.38933 200.031 1.176 201.482 1.176C202.975 1.176 204.234 1.496 205.258 2.136C206.282 2.776 206.794 3.77866 206.794 5.144ZM254.252 15.384C254.422 14.5307 254.508 13.656 254.508 12.76C254.508 8.62133 252.481 6.552 248.428 6.552C246.593 6.552 245.036 6.936 243.756 7.704C242.561 9.112 241.964 10.7973 241.964 12.76C241.964 14.04 242.518 15.1493 243.628 16.088C244.737 16.984 246.102 17.688 247.724 18.2C249.388 18.712 251.18 19.352 253.1 20.12C255.02 20.888 256.79 21.72 258.412 22.616C260.076 23.4693 261.462 24.7707 262.572 26.52C263.681 28.2267 264.236 30.2533 264.236 32.6C264.236 37.08 262.508 40.728 259.052 43.544C255.638 46.36 251.521 47.768 246.7 47.768C242.817 47.768 239.51 46.808 236.78 44.888C234.092 42.9253 232.748 40.1947 232.748 36.696C232.748 34.904 233.281 33.4107 234.348 32.216C235.457 30.9787 236.758 30.36 238.252 30.36C239.788 30.36 240.918 30.552 241.644 30.936C241.302 32.216 241.132 33.368 241.132 34.392C241.132 36.696 241.772 38.5307 243.052 39.896C244.374 41.2187 246.188 41.88 248.492 41.88C250.796 41.88 252.652 41.2827 254.06 40.088C255.468 38.8933 256.172 37.3147 256.172 35.352C256.172 33.3467 255.382 31.704 253.804 30.424C252.268 29.144 250.39 28.12 248.172 27.352C245.953 26.584 243.734 25.7733 241.516 24.92C239.297 24.0667 237.398 22.808 235.82 21.144C234.284 19.4373 233.516 17.304 233.516 14.744C233.516 10.7333 235.244 7.40533 238.7 4.76C242.198 2.11466 246.145 0.791996 250.54 0.791996C253.782 0.791996 256.577 1.45333 258.924 2.776C261.313 4.056 262.507 6.01867 262.507 8.664C262.507 10.584 261.889 12.2267 260.652 13.592C259.414 14.9147 257.857 15.576 255.98 15.576C255.468 15.576 254.892 15.512 254.252 15.384ZM307.484 0.791996C311.196 0.791996 314.438 1.88 317.212 4.056C319.985 6.232 321.372 9.048 321.372 12.504C321.372 14.3387 320.86 15.8533 319.836 17.048C318.812 18.2427 317.553 18.84 316.06 18.84C314.566 18.84 313.372 18.648 312.476 18.264C312.604 17.5813 312.668 16.856 312.668 16.088C312.625 13.4 311.964 11.224 310.684 9.56C309.404 7.85333 307.526 7 305.052 7C302.62 7 300.358 7.78933 298.268 9.368C297.03 11.16 296.07 13.5067 295.388 16.408C294.705 19.3093 294.364 22.168 294.364 24.984C294.364 29.6773 295.26 33.624 297.052 36.824C298.886 39.9813 301.724 41.56 305.564 41.56C309.105 41.56 311.494 40.216 312.732 37.528C313.884 35.1813 314.46 32.0667 314.46 28.184C316.636 28.184 318.449 28.5893 319.9 29.4C321.35 30.168 322.076 31.448 322.076 33.24C322.076 37.4213 320.241 40.8987 316.572 43.672C312.902 46.4027 308.764 47.768 304.156 47.768C298.14 47.768 293.574 45.784 290.46 41.816C287.345 37.8053 285.788 32.3867 285.788 25.56C285.788 18.7333 287.729 12.9093 291.612 8.088C295.537 3.224 300.828 0.791996 307.484 0.791996Z" fill="#C67D11"/>
</g>
<defs>
<filter id="filter0_d_11139_2632" x="0.839996" y="0.791992" width="325.236" height="54.9756" filterUnits="userSpaceOnUse" color-interpolation-filters="sRGB">
<feFlood flood-opacity="0" result="BackgroundImageFix"/>
<feColorMatrix in="SourceAlpha" type="matrix" values="0 0 0 0 0 0 0 0 0 0 0 0 0 0 0 0 0 0 127 0" result="hardAlpha"/>
<feOffset dy="4"/>
<feGaussianBlur stdDeviation="2"/>
<feComposite in2="hardAlpha" operator="out"/>
<feColorMatrix type="matrix" values="0 0 0 0 0 0 0 0 0 0 0 0 0 0 0 0 0 0 0.25 0"/>
<feBlend mode="normal" in2="BackgroundImageFix" result="effect1_dropShadow_11139_2632"/>
<feBlend mode="normal" in="SourceGraphic" in2="effect1_dropShadow_11139_2632" result="shape"/>
</filter>
</defs>
</svg>
