<svg width="39" height="56" viewBox="0 0 39 56" fill="none" xmlns="http://www.w3.org/2000/svg">
<g filter="url(#filter0_d_11139_2632)">
<path d="M33.704 38.168C34.216 39.32 34.472 40.6213 34.472 42.072C34.472 43.5227 33.96 44.7813 32.936 45.848C31.9547 46.872 30.7387 47.384 29.288 47.384C24.7653 47.384 17.6827 47.128 8.04 46.616C7.272 46.5733 6.58933 46.3387 5.992 45.912C5.39467 45.4427 5.096 44.8667 5.096 44.184C5.096 41.9227 5.26667 38.104 5.608 32.728C5.992 27.352 6.184 22.3387 6.184 17.688C6.184 12.9947 5.736 7.61867 4.84 1.56C7.99733 1.816 12.2427 1.944 17.576 1.944C22.9093 1.944 28.008 1.56 32.872 0.791996C33.384 1.73066 33.64 2.86133 33.64 4.184C33.64 5.464 33.128 6.616 32.104 7.64C31.1227 8.62133 29.8853 9.112 28.392 9.112C26.9413 9.112 24.5947 8.89867 21.352 8.472C18.152 8.04533 15.784 7.832 14.248 7.832C13.9067 12.1413 13.7147 16.1947 13.672 19.992C16.36 20.248 19.24 20.376 22.312 20.376C25.4267 20.376 28.0933 19.928 30.312 19.032C30.824 19.9707 31.08 21.1013 31.08 22.424C31.08 23.704 30.568 24.8773 29.544 25.944C28.5627 26.968 27.368 27.48 25.96 27.48C24.5947 27.48 22.5467 27.224 19.816 26.712C17.0853 26.1573 15.016 25.88 13.608 25.88C13.608 32.6213 13.7573 37.5707 14.056 40.728C16.104 40.8987 17.704 40.984 18.856 40.984C24.488 40.984 29.4373 40.0453 33.704 38.168Z" fill="#C67D11"/>
</g>
<defs>
<filter id="filter0_d_11139_2632" x="0.839996" y="0.791992" width="37.632" height="54.5918" filterUnits="userSpaceOnUse" color-interpolation-filters="sRGB">
<feFlood flood-opacity="0" result="BackgroundImageFix"/>
<feColorMatrix in="SourceAlpha" type="matrix" values="0 0 0 0 0 0 0 0 0 0 0 0 0 0 0 0 0 0 127 0" result="hardAlpha"/>
<feOffset dy="4"/>
<feGaussianBlur stdDeviation="2"/>
<feComposite in2="hardAlpha" operator="out"/>
<feColorMatrix type="matrix" values="0 0 0 0 0 0 0 0 0 0 0 0 0 0 0 0 0 0 0.25 0"/>
<feBlend mode="normal" in2="BackgroundImageFix" result="effect1_dropShadow_11139_2632"/>
<feBlend mode="normal" in="SourceGraphic" in2="effect1_dropShadow_11139_2632" result="shape"/>
</filter>
</defs>
</svg>
